<?xml version="1.0" encoding="UTF-8" standalone="no"?>
<svg
   width="256"
   height="256"
   viewBox="0 0 256 256"
   version="1.1"
   preserveAspectRatio="xMidYMid"
   id="svg18"
   sodipodi:docname="favicon.svg"
   inkscape:version="1.1.1 (3bf5ae0d25, 2021-09-20)"
   xmlns:inkscape="http://www.inkscape.org/namespaces/inkscape"
   xmlns:sodipodi="http://sodipodi.sourceforge.net/DTD/sodipodi-0.dtd"
   xmlns="http://www.w3.org/2000/svg"
   xmlns:svg="http://www.w3.org/2000/svg">
  <defs
     id="defs22" />
  <sodipodi:namedview
     id="namedview20"
     pagecolor="#ffffff"
     bordercolor="#666666"
     borderopacity="1.0"
     inkscape:pageshadow="2"
     inkscape:pageopacity="0.0"
     inkscape:pagecheckerboard="0"
     showgrid="false"
     height="256px"
     inkscape:zoom="4.1374408"
     inkscape:cx="79.155211"
     inkscape:cy="119.76002"
     inkscape:window-width="2534"
     inkscape:window-height="1374"
     inkscape:window-x="10"
     inkscape:window-y="50"
     inkscape:window-maximized="1"
     inkscape:current-layer="svg18" />
  <g
     id="g1441"
     transform="matrix(1.2223865,0,0,1.2223865,-28.506382,-28.465473)">
    <path
       d="m 128.03346,23.286802 c -21.92265,0.04655 -43.277825,6.97253 -61.054871,19.801513 L 90.762777,66.872501 C 101.98432,60.008107 114.87891,56.365117 128.03346,56.342749 167.6087,56.34267 199.69079,88.424756 199.69071,128 c -0.0316,13.14986 -3.68122,26.03747 -10.54895,37.25149 l 23.82927,23.82926 c 12.8249,-17.78733 19.74204,-39.15208 19.77564,-61.08075 0,-57.831498 -46.88171,-104.713198 -104.71321,-104.713198 z"
       fill="#abc2ab"
       id="path2"
       style="stroke-width:0.995043" />
    <path
       d="m 189.08834,212.91168 -23.7842,-23.78418 c -11.22154,6.86439 -24.11613,10.50739 -37.27068,10.52975 C 88.458219,199.65733 56.376133,167.57524 56.376211,128 56.407884,114.85013 60.057418,101.96253 66.925164,90.748513 L 43.095888,66.919248 C 30.270967,84.706566 23.353865,106.07133 23.320265,128 c 0,57.83149 46.8817,104.7132 104.713195,104.7132 21.92266,-0.0466 43.27783,-6.97252 61.05488,-19.80152 z"
       fill="#478061"
       id="path4"
       style="stroke-width:0.995043" />
    <circle
       fill="#abc2ab"
       cx="128.01672"
       cy="128"
       r="33.337265"
       id="circle6"
       style="stroke-width:0.995043" />
  </g>
</svg>
