<?xml version="1.0" encoding="UTF-8" standalone="no"?>
<svg
   width="256"
   height="256"
   viewBox="0 0 256 256"
   version="1.1"
   preserveAspectRatio="xMidYMid"
   id="svg18"
   sodipodi:docname="void_fg.svg"
   inkscape:version="1.1.1 (3bf5ae0d25, 2021-09-20)"
   xmlns:inkscape="http://www.inkscape.org/namespaces/inkscape"
   xmlns:sodipodi="http://sodipodi.sourceforge.net/DTD/sodipodi-0.dtd"
   xmlns="http://www.w3.org/2000/svg"
   xmlns:svg="http://www.w3.org/2000/svg">
  <defs
     id="defs22" />
  <sodipodi:namedview
     id="namedview20"
     pagecolor="#ffffff"
     bordercolor="#666666"
     borderopacity="1.0"
     inkscape:pageshadow="2"
     inkscape:pageopacity="0.0"
     inkscape:pagecheckerboard="0"
     showgrid="false"
     height="256px"
     inkscape:zoom="4.1374408"
     inkscape:cx="79.155211"
     inkscape:cy="119.76002"
     inkscape:window-width="2534"
     inkscape:window-height="1374"
     inkscape:window-x="10"
     inkscape:window-y="50"
     inkscape:window-maximized="1"
     inkscape:current-layer="svg18" />
  <g
     id="g1447"
     transform="translate(-1.325e-6,0.15769)">
    <path
       d="m 31.091544,147.47844 c -1.141875,0.81562 -2.181795,1.22343 -3.11976,1.22343 h -4.037338 c -0.570938,0 -1.01953,-0.10194 -1.345776,-0.30585 -0.326246,-0.20391 -0.591324,-0.50977 -0.795233,-0.91758 L 1.1173883,109.06259 c -0.081564,-0.0816 -0.12234565,-0.18352 -0.12234565,-0.30585 v -0.36704 c 0,-0.40781 0.14273645,-0.73406 0.42820945,-0.97875 0.3262461,-0.28547 0.8360107,-0.4282 1.5292935,-0.4282 H 28.094129 c 1.345775,0 2.222568,0.40781 2.630377,1.22343 l 12.723731,24.52987 35.663107,-24.52987 c 1.182656,-0.81562 2.426485,-1.22343 3.731487,-1.22343 h 3.976153 c 0.530165,0 0.795246,0.2243 0.795246,0.67289 0,0.36703 -0.326245,0.81562 -0.978737,1.34577 z"
       fill="#000000"
       id="path8"
       style="stroke:#ffffff;stroke-width:1.99009;stroke-miterlimit:4;stroke-dasharray:none;stroke-opacity:1" />
    <path
       d="m 86.576223,148.70187 c -2.120622,0 -3.996552,-0.32625 -5.627791,-0.97874 -1.631257,-0.69328 -2.997433,-1.63125 -4.098525,-2.81391 -1.101093,-1.18265 -1.937104,-2.5692 -2.508032,-4.15966 -0.570929,-1.63125 -0.856392,-3.38485 -0.856392,-5.26079 0,-2.40608 0.40781,-4.77139 1.223429,-7.09591 0.81562,-2.32453 1.937103,-4.5471 3.364451,-6.66773 1.468112,-2.12062 3.180915,-4.07811 5.138409,-5.87248 1.998276,-1.79438 4.15968,-3.34406 6.484212,-4.64905 2.365312,-1.305 4.852962,-2.32453 7.462949,-3.05859 2.610004,-0.77484 5.281177,-1.16226 8.013497,-1.16226 h 29.97415 c 2.16141,0 4.05773,0.32625 5.68899,0.97874 1.67202,0.6525 3.05857,1.57008 4.15967,2.75274 1.10109,1.14186 1.93711,2.50803 2.50803,4.0985 0.57095,1.59046 0.85643,3.32366 0.85643,5.19959 0,2.4061 -0.42821,4.79179 -1.28461,7.1571 -0.81564,2.32453 -1.95751,4.5471 -3.42563,6.66772 -1.46812,2.12061 -3.20133,4.09851 -5.1996,5.93367 -1.99828,1.79437 -4.18008,3.36443 -6.54538,4.71021 -2.3653,1.305 -4.85295,2.34493 -7.46295,3.11976 -2.60999,0.73407 -5.24038,1.10109 -7.89116,1.10109 z m 36.825387,-25.01925 c 1.34579,-2.85468 2.01868,-4.99568 2.01868,-6.42302 0,-1.18266 -0.42821,-1.99828 -1.28463,-2.44687 -0.81562,-0.4486 -2.03905,-0.67289 -3.67029,-0.67289 h -8.31936 c -1.18265,0 -2.28374,0.16312 -3.30328,0.48937 -0.97876,0.28547 -1.89633,0.79523 -2.75273,1.52929 -0.8564,0.73407 -1.69241,1.71282 -2.50803,2.93625 -0.77483,1.22344 -1.57006,2.75272 -2.38569,4.58787 l -2.936263,6.66773 c -1.549676,3.4664 -2.324514,6.0764 -2.324514,7.82999 0,1.18265 0.346637,2.03905 1.039911,2.5692 0.693292,0.48937 1.69243,0.73406 2.997414,0.73406 h 8.380532 c 1.26423,0 2.4265,-0.18351 3.4868,-0.55054 1.06032,-0.40781 2.07985,-1.03992 3.05859,-1.89633 0.97875,-0.8564 1.91671,-1.99827 2.8139,-3.42561 0.89719,-1.42734 1.81475,-3.18093 2.75272,-5.26077 z"
       fill="#000000"
       id="path10"
       style="stroke:#ffffff;stroke-width:1.99009;stroke-miterlimit:4;stroke-dasharray:none;stroke-opacity:1" />
    <path
       d="m 144.05949,148.70187 c -0.73405,0 -1.10108,-0.24468 -1.10108,-0.73405 0,-0.24468 0.0612,-0.55055 0.18352,-0.91758 l 17.18923,-38.47702 c 0.48939,-1.06031 1.26423,-1.59047 2.32455,-1.59047 h 21.04307 c 0.77484,0 1.16226,0.26508 1.16226,0.79522 0,0.24469 -0.0816,0.50978 -0.24467,0.79525 l -17.1281,38.47702 c -0.48938,1.10109 -1.26422,1.65163 -2.32454,1.65163 z"
       fill="#000000"
       id="path12"
       style="stroke:#ffffff;stroke-width:1.99009;stroke-miterlimit:4;stroke-dasharray:none;stroke-opacity:1" />
    <path
       d="m 174.13592,148.70187 c -0.73406,0 -1.10108,-0.24468 -1.10108,-0.73405 0,-0.24468 0.0612,-0.55055 0.18351,-0.91758 l 17.18924,-38.47702 c 0.48939,-1.06031 1.26424,-1.59047 2.32454,-1.59047 h 49.18209 c 2.12062,0 3.99655,0.32625 5.62779,0.97874 1.63124,0.6525 2.99741,1.57008 4.0985,2.75274 1.10108,1.14186 1.93711,2.50803 2.50805,4.0985 0.57093,1.59046 0.8564,3.32366 0.8564,5.19959 0,2.48766 -0.4282,4.93453 -1.2846,7.34061 -0.85641,2.36531 -2.03906,4.60827 -3.54798,6.7289 -1.46811,2.12061 -3.22169,4.07811 -5.26075,5.87248 -1.99828,1.79437 -4.18007,3.34406 -6.54539,4.64905 -2.32452,1.26422 -4.77139,2.26336 -7.34059,2.99742 -2.56923,0.73406 -5.13844,1.10109 -7.70765,1.10109 z m 53.21941,-25.01925 c 1.305,-2.93624 1.9575,-5.07725 1.9575,-6.42302 0,-1.18266 -0.40781,-1.99828 -1.22342,-2.44687 -0.81563,-0.4486 -1.99829,-0.67289 -3.54798,-0.67289 h -12.41786 l -12.112,27.34376 h 12.35669 c 1.22344,0 2.36531,-0.18351 3.42562,-0.55054 1.06031,-0.40781 2.05945,-1.03991 2.99741,-1.89633 0.97875,-0.89719 1.91672,-2.03905 2.8139,-3.42561 0.93797,-1.42734 1.87594,-3.18093 2.81389,-5.26077 z"
       fill="#000000"
       id="path14"
       style="stroke:#ffffff;stroke-width:1.99009;stroke-miterlimit:4;stroke-dasharray:none;stroke-opacity:1" />
  </g>
</svg>
